<?xml version="1.0" encoding="UTF-8"?>
<!DOCTYPE svg PUBLIC "-//W3C//DTD SVG 1.1//EN" "http://www.w3.org/Graphics/SVG/1.1/DTD/svg11.dtd">
<!-- Creator: CorelDRAW -->
<svg xmlns="http://www.w3.org/2000/svg" xml:space="preserve" width="210mm" height="210mm" version="1.1" style="shape-rendering:geometricPrecision; text-rendering:geometricPrecision; image-rendering:optimizeQuality; fill-rule:evenodd; clip-rule:evenodd"
viewBox="0 0 21000 21000"
 xmlns:xlink="http://www.w3.org/1999/xlink"
 xmlns:xodm="http://www.corel.com/coreldraw/odm/2003">
 <defs>
  <style type="text/css">
   <![CDATA[
    .str0 {stroke:#2B2A29;stroke-width:7.62;stroke-miterlimit:22.9256}
    .fil0 {fill:none}
    .fil1 {fill:#E31E24}
   ]]>
  </style>
 </defs>
 <g id="Fundo">
  <metadata id="CorelCorpID_0Corel-Layer"/>
  <rect class="fil0 str0" x="-0.01" y="-0.01" width="21000.02" height="21000.02"/>
 </g>
 <g id="Sinal">
  <metadata id="CorelCorpID_1Corel-Layer"/>
  <path class="fil1" d="M13061.04 13920.53l84.34 -57.3 84.27 -56.18 42.73 -26.88 43.94 -25.59 44.02 -24.46 45.15 -23.19 45.24 -23.17 46.43 -19.48 47.65 -19.56 46.35 -18.27 48.86 -15.85 47.64 -14.65 48.86 -13.52 48.85 -13.36 98.99 -20.76 100.04 -19.56 100.27 -17.07 100.13 -17.13 51.26 -6.04 50.06 -6.2 50.06 -3.62 51.35 -2.42 50.06 0 50.06 3.63 50.06 4.91 50.14 8.52 48.77 9.83 50.05 10.95 99 26.87 97.71 29.22 96.41 30.58 96.58 34.13 94.08 36.69 46.36 20.68 45.15 20.85 45.23 23.19 43.94 24.3 43.95 25.75 42.73 25.6 85.55 54.88 83.06 58.59 81.76 61.09 81.86 61 79.43 62.3 79.35 64.71 75.74 65.91 74.52 69.54 35.41 35.41 34.21 36.61 67.12 75.74 67.21 76.86 65.99 75.65 68.33 74.52 72.11 71.95 73.24 69.62 149.05 137.87 75.65 67.2 39.2 32.91 38.95 31.8 40.32 29.21 41.61 30.58 84.26 54.97 86.68 53.68 87.88 50.06 89.18 48.77 90.38 45.15 91.67 44.02 91.5 42.66 94.09 40.32 94 37.83 94.08 36.62 95.29 34.2 95.21 32.91 96.58 31.72 194.2 59.95 194.12 56.1 195.41 56.09 -83.06 64.71 -82.97 63.42 -84.35 61.08 -42.73 30.51 -44.03 28.09 -43.86 28.09 -45.23 25.67 -46.44 25.59 -46.35 23.18 -47.65 23.18 -47.65 20.76 -48.85 20.77 -48.85 18.27 -48.85 17.14 -50.06 14.65 -50.06 14.65 -51.26 13.44 -102.62 21.97 -102.7 18.26 -103.73 14.65 -103.91 11.11 -104.94 8.45 -103.82 3.62 -105.03 0 -103.83 -4.91 -105.1 -8.44 -103.74 -13.53 -102.61 -18.27 -102.62 -20.76 -102.54 -25.59 -100.19 -29.3 -100.12 -33 -98.99 -36.61 -96.42 -40.25 -47.64 -21.97 -47.65 -21.97 -46.43 -24.39 -46.37 -24.46 -45.15 -26.88 -44.02 -26.81 -43.94 -28.16 -44.02 -29.21 -42.74 -30.51 -41.53 -31.7 -81.85 -64.71 -79.35 -69.62 -75.65 -71.95 -74.53 -74.53 -70.9 -76.94 -69.54 -78.06 -67.21 -80.56 -64.7 -81.85 -256.57 -329.5 -65.92 -81.85 -67.19 -80.56 -68.34 -79.35 -69.7 -76.86 -73.23 -75.73 -74.53 -73.24 -78.06 -70.74 -79.44 -67.13 -41.61 -31.78 -41.44 -31.64 -42.74 -30.66 -44.02 -29.21 -44.02 -28.17 -45.15 -26.88 -45.15 -25.6 -45.24 -25.59 -47.65 -24.46 -46.35 -21.9 -47.73 -21.97 -47.48 -20.84 -97.78 -38.95 -98.91 -34.21 -100.12 -30.5 -100.2 -26.88 -204.02 -52.56zm5660.97 2910.21l0 1901.77 -355.4 6.03 -178.27 1.29 -177.15 -1.29 -178.26 -3.62 -178.42 -7.32 -89.09 -6.12 -89.19 -6.11 -89.08 -8.45 -89.18 -8.61 -89.17 -10.95 -90.38 -11.03 -89.09 -14.72 -89.26 -14.57 -89.17 -17.06 -87.89 -19.56 -87.97 -20.76 -87.87 -23.18 -86.76 -25.67 -85.48 -26.8 -84.34 -30.59 -84.19 -31.63 -81.84 -35.49 -80.57 -37.83 -79.43 -40.32 -78.15 -42.65 -75.81 -46.37 -74.36 -50.05 -72.12 -51.34 -70.83 -56.1 -67.19 -57.39 -66 -61 -64.7 -63.5 -61.09 -64.71 -59.8 -68.33 -57.47 -69.62 -54.96 -71.94 -52.47 -73.32 -51.28 -74.37 -47.63 -76.94 -46.44 -76.94 -43.95 -79.27 -40.24 -79.35 -39.11 -81.85 -36.7 -80.56 -34.2 -82.98 -33 -82.98 -30.5 -82.98 -29.22 -84.26 -28.17 -84.26 -25.67 -85.47 -25.59 -85.39 -47.65 -172.08 -45.15 -172.14 -44.02 -173.44 98.99 102.53 100.04 101.41 51.35 48.77 52.47 47.65 53.76 46.35 54.97 45.15 56.18 42.74 58.59 41.52 59.87 39.04 59.88 37.82 62.29 35.42 62.3 35.49 62.29 32.92 63.42 32.91 64.78 30.51 64.71 29.37 130.7 56.09 133.2 52.48 133.12 47.65 135.53 45.15 135.53 42.73 138.03 37.83 68.4 18.35 69.54 15.85 69.69 15.86 69.62 14.65 69.61 12.22 70.83 10.95 70.91 9.74 70.82 8.61 70.82 6.04 70.83 6.12 70.82 3.69 72.11 2.42 70.82 1.29 72.04 -1.29 70.82 -1.2 70.82 -2.42 72.03 -4.91 70.82 -6.11 70.91 -6.12 70.83 -8.53 141.72 -19.48 139.23 -24.47 140.45 -26.87 138.02 -30.51 139.15 -32.92 277.26 -68.32zm-4709.45 -9623.8l92.8 70.74 91.59 73.24 43.94 37.84 42.74 39.11 41.61 41.45 40.31 41.52 39.04 43.94 36.62 46.36 34.2 46.44 33 47.65 31.79 50.06 30.5 48.76 61.01 100.04 30.58 50.06 30.58 50.06 13.36 25.59 11.11 26.96 10.94 26.8 8.54 28.09 14.65 56.1 12.22 57.39 10.95 57.37 13.53 57.39 29.29 113.56 31.71 112.27 30.5 112.35 29.3 112.27 57.46 227.04 29.29 112.35 31.72 112.2 35.48 112.35 36.63 109.86 40.24 109.85 42.73 108.65 42.9 108.65 45.15 107.44 47.64 107.44 48.78 104.88 51.35 105.02 54.96 103.82 56.17 102.54 58.67 99.95 61.02 100.12 64.7 96.5 67.2 96.41 69.54 92.8 72.11 92.8 73.31 90.3 74.45 89.09 76.94 89.17 39.12 43.86 40.32 41.53 42.73 39.12 45.23 37.82 46.44 35.42 47.65 32.91 97.7 64.71 97.62 63.42 100.21 61.08 101.32 57.3 102.61 53.76 105.03 51.28 107.44 47.56 53.76 21.96 54.97 20.78 54.98 19.55 54.96 18.35 56.17 15.86 57.39 14.64 56.17 12.23 57.47 9.67 58.59 8.61 57.39 7.32 58.58 4.9 57.46 4.91 58.68 2.42 58.51 1.21 58.75 0 58.59 -1.21 57.38 -2.42 58.6 -3.78 58.67 -4.83 57.37 -7.32 57.47 -7.24 58.51 -8.61 57.47 -9.83 57.37 -12.15 56.19 -12.23 57.46 -14.57 112.27 -31.78 -102.62 -41.54 -51.18 -23.18 -50.14 -23.17 -48.85 -25.59 -47.65 -28.17 -46.35 -29.22 -46.45 -30.5 -90.37 -64.71 -89.17 -65.99 -86.69 -68.33 -85.46 -69.62 -85.56 -70.74 -83.06 -72.03 -81.85 -75.66 -79.35 -76.93 -76.94 -80.57 -72.11 -82.97 -69.61 -85.47 -67.21 -89.09 -63.42 -90.39 -61 -92.71 -58.75 -92.8 -57.39 -95.21 -112.35 -190.41 -109.93 -192.84 -107.37 -192.91 -51.34 -97.62 -51.27 -98.84 -50.06 -98.91 -47.73 -98.91 -92.8 -201.45 -90.37 -202.64 -87.97 -202.58 -87.89 -202.57 -89.17 -203.94 -47.64 -100.03 -24.47 -48.78 -26.87 -48.93 -28.1 -47.57 -29.22 -46.35 -30.5 -45.23 -34.28 -43.94 -34.2 -42.74 -35.41 -41.53 -37.83 -41.44 -37.82 -40.25 -79.45 -78.22 -81.84 -76.87 -83.05 -74.44 -84.27 -73.24 -85.55 -70.74 -43.87 -35.41 -44.02 -33 -45.15 -31.71 -45.23 -30.5 -46.44 -30.59 -47.65 -26.87 -48.76 -26.81 -50.06 -24.38 -50.15 -23.18 -52.46 -19.56 -52.56 -19.55 -52.48 -15.86 -53.84 -14.65 -54.96 -12.23 -54.89 -10.95 -54.89 -7.32 -55.06 -6.11 -54.96 -3.63 -54.97 -1.29 -54.96 0 -54.89 1.29 -56.26 3.63 -109.94 8.52 -111.07 9.82zm2833.43 -925.37l-41.45 168.53 -19.55 84.18 -17.06 85.47 -17.15 84.26 -14.57 85.4 -13.52 85.47 -12.23 86.68 -21.89 172.15 -8.62 85.39 -7.32 86.67 -6.2 86.69 -3.61 85.47 -3.63 86.67 -1.2 86.6 1.2 86.68 1.21 86.76 2.42 86.6 3.61 86.6 6.2 86.76 8.54 85.39 11.02 86.67 12.24 85.47 14.65 85.48 18.26 84.26 19.56 84.1 23.18 84.26 24.46 82.98 28.09 81.86 30.51 81.76 32.99 79.36 36.62 79.35 39.11 76.94 40.32 76.77 42.74 75.82 42.74 74.37 45.15 74.52 46.52 73.16 47.64 72.03 50.05 70.82 51.19 69.62 53.85 68.33 54.96 67.12 54.81 65.92 57.46 65.99 114.93 129.26 59.72 62.28 59.88 63.59 61.09 61 62.29 59.8 125.79 118.38 129.5 116.06 131.82 112.19 67.2 54.89 67.21 53.76 69.61 52.56 70.82 49.89 142.86 99 0 -1978.72 -52.47 -17.14 -51.28 -19.56 -48.92 -20.69 -50.06 -24.46 -47.65 -24.46 -47.65 -26.73 -46.35 -28.08 -46.43 -29.38 -45.15 -30.42 -44.04 -31.79 -43.93 -32.91 -41.53 -34.21 -41.45 -34.13 -40.32 -36.7 -40.4 -37.82 -37.83 -37.83 -37.83 -40.24 -35.41 -40.32 -35.41 -41.52 -34.2 -42.74 -64.79 -87.89 -62.3 -89.1 -59.79 -90.37 -54.97 -93.93 -108.73 -187.99 -51.35 -96.43 -48.77 -97.7 -95.29 -195.25 -46.43 -97.7 -45.15 -100.12 -42.74 -98.83 -41.53 -101.33 -79.35 -202.65 -37.91 -101.25 -36.62 -102.53 -35.41 -103.74 -33 -102.53 -63.58 -208.85zm-2344.9 3817.07l-14.65 218.59 -3.62 109.77 0 108.65 2.42 109.94 6.03 109.86 8.53 108.56 12.24 109.86 17.13 108.65 19.56 107.45 23.18 107.43 28.17 106.17 31.63 104.94 35.41 103.82 39.11 102.53 41.61 101.33 43.87 101.32 45.23 98.84 47.64 98.91 50.06 98.82 51.35 96.5 52.47 96.34 54.97 95.3 56.18 92.71 58.67 92.79 61 91.59 62.3 90.3 64.78 89.09 65.91 86.68 68.33 86.6 70.91 84.26 72.11 82.97 74.45 80.65 75.73 79.36 78.15 76.85 79.43 75.65 81.77 74.53 83.14 70.74 85.46 69.63 86.76 65.91 89.1 64.7 90.37 62.3 91.6 59.79 94.08 56.1 95.21 54.97 96.49 52.47 97.71 51.19 97.7 48.92 100.12 46.37 100.2 45.23 101.41 42.65 101.32 41.53 102.7 40.24 102.45 39.12 103.9 36.61 102.54 36.54 208.84 69.62 207.65 67.2 420.11 128.13 0 -1966.48 -83.06 1.12 -82.97 0 -81.85 -3.62 -41.54 -3.62 -40.23 -4.91 -81.94 -13.44 -80.56 -17.06 -80.63 -19.56 -80.65 -23.18 -79.35 -23.17 -78.15 -25.6 -79.43 -25.75 -78.15 -28.01 -76.95 -28.09 -77.02 -29.3 -76.85 -30.5 -75.66 -31.79 -75.81 -32.91 -75.73 -34.13 -74.44 -35.49 -74.61 -36.54 -73.24 -37.83 -73.24 -37.82 -72.11 -40.32 -72.03 -40.24 -142.86 -84.26 -140.43 -87.89 -136.82 -91.59 -135.61 -94.01 -133.12 -97.61 -131.91 -101.33 -129.5 -102.53 -126.91 -105.03 -124.58 -108.57 -122.17 -112.36 -119.69 -113.47 -57.46 -58.67 -58.58 -59.72 -56.19 -59.8 -56.17 -61.08 -54.97 -62.22 -53.76 -62.37 -52.55 -63.41 -51.27 -64.71 -51.19 -65.92 -48.93 -65.83 -96.5 -134.33 -92.79 -136.65 -91.59 -137.95 -89.17 -138.02zm-13501.09 9901.36l19000 0 0 -19000 -19000 0 0 19000zm12086.39 -15186.89l-2368.03 -476.25 -3638.02 1309.69 -515.94 -238.12 -2632.61 3280.84c-1785.59,-1612.06 -2249.28,-3736.96 -1640.42,-6164.81l3995.22 1098.03 3585.11 -820.21 1217.08 383.64 1997.61 1627.19zm-4458.24 806.99l-1217.09 370.42 1746.26 9207.53 1389.08 3638 2791.36 -701.15 -3346.95 -7778.78 -1362.66 -4736.02z"/>
 </g>
</svg>
